# xmcd CD database file
#
# Track frame offsets:
#	150
#	13075
#	26462
#	38240
#	44685
#	54292
#	65660
#	76505
#	87995
#	98340
#	110862
#	124875
#	138242
#	150570
#	167772
#
# Disc length: 2408 seconds
#
# Revision: 0
# Processed by: cddbd v1.5.1PL0 Copyright (c) Steve Scherf et al.
# Submitted via: CDex 1.51
#
DISCID=ba09660f
DTITLE=All About Country - cd 1
DYEAR=1999
DGENRE=Country
TTITLE0=Kenny Rogers - Ruby don't take your love to town
TTITLE1=Lynn Anderson - Rose garden
TTITLE2=Everly Brothers - Let it be me
TTITLE3=Waylon Jennings - It's so easy
TTITLE4=Ned Miller - From a jack to a king
TTITLE5=Jim Croce - I'll have to say a love you in a song
TTITLE6=Don Williams - Always something there to remind me
TTITLE7=Patsy Cline - Walking after midnight
TTITLE8=Buck Owens - Rollin' in my sweet baby's arms
TTITLE9=The Bellamy Brothers - Let your love flow
TTITLE10=Eddie Rabbitt - Drivin' my life away
TTITLE11=Jimmy Dean - Big bad John
TTITLE12=Johnny Cash - I walk the line
TTITLE13=Billie Davis Feat.Albert Lee - I don't know what love is
TTITLE14=Ray Peterson - Tell Laura I love her
EXTD=YEAR: 1999
EXTT0=
EXTT1=
EXTT2=
EXTT3=
EXTT4=
EXTT5=
EXTT6=
EXTT7=
EXTT8=
EXTT9=
EXTT10=
EXTT11=
EXTT12=
EXTT13=
EXTT14=
PLAYORDER=
